# xmcd
#
# Track frame offsets: 
#        150
#        11538
#        26584
#        44681
#        59704
#        73590
#        89216
#        106820
#        119431
#        133029
#
# Disc length: 1940 seconds
#
# Revision: 0
# Processed by: cddbd v1.5.2PL0 Copyright (c) Steve Scherf et al.
# Submitted via: ExactAudioCopy v0.95b4
#
DISCID=9307920a
DTITLE=Mark Stary - Mark Stary and The Whiskey Roses
DYEAR=2006
DGENRE=Country Rock
TTITLE0=Manic
TTITLE1=Michigan
TTITLE2=Whiskey
TTITLE3=Fine
TTITLE4=Roy Clark
TTITLE5=Wild Horse
TTITLE6=Louie
TTITLE7=Choo Choo
TTITLE8=Rock My World
TTITLE9=Maggie
EXTD=
EXTT0=
EXTT1=
EXTT2=
EXTT3=
EXTT4=
EXTT5=
EXTT6=
EXTT7=
EXTT8=
EXTT9=
PLAYORDER=
